<?xml version="1.0" encoding="UTF-8" standalone="no"?>
<svg width="184px" height="30px" viewBox="0 0 184 30" version="1.1" xmlns="http://www.w3.org/2000/svg" xmlns:xlink="http://www.w3.org/1999/xlink" xmlns:sketch="http://www.bohemiancoding.com/sketch/ns">
    <!-- Generator: Sketch 3.2.2 (9983) - http://www.bohemiancoding.com/sketch -->
    <title>GDC_Logo</title>
    <desc>Created with Sketch.</desc>
    <defs></defs>
    <g id="Page-1" stroke="none" stroke-width="1" fill="none" fill-rule="evenodd" sketch:type="MSPage">
        <g id="Artboard-2" sketch:type="MSArtboardGroup" transform="translate(-12.000000, -9.000000)">
            <g id="Logo---Original-2" sketch:type="MSLayerGroup" transform="translate(12.000000, 18.000000)" fill="#747B7E">
                <path d="M45.7094357,10.7662505 C44.2951874,10.7662505 42.9913874,9.75470671 42.5242113,7.95819412 L47.4147108,6.00086278 C47.1530422,5.06621274 46.410569,3.99937519 44.4811607,3.99937519 C42.8913309,3.99937519 40.9481805,5.19761274 40.9481805,7.64049411 C40.9481805,9.56497545 42.2485734,11.5818755 44.7282353,11.5818755 C45.2426571,11.5818755 46.0471972,11.5496443 46.8682051,10.9671193 C47.1792204,10.752188 47.4415137,10.4936067 47.6602522,10.2093755 C47.1130651,10.4770692 46.5298758,10.7662505 45.7094357,10.7662505 M44.1867835,4.53375021 C45.0564,4.53375021 45.780645,5.24756275 45.780645,5.87812528 C45.780645,6.09913154 45.620055,6.19340654 45.3143775,6.3040503 L42.4139902,7.4684816 C41.963282,5.09591274 43.5285235,4.53375021 44.1867835,4.53375021" id="Fill-5" sketch:type="MSShapeGroup"></path>
                <path d="M40.3177455,11.361938 L40.7891805,10.8956255 L39.910024,10.7868943 C39.6875376,10.7601193 39.522859,10.5763505 39.522859,10.3500005 L39.522859,1.09687505 C39.522859,0.982068796 39.5695936,0.875306291 39.6455729,0.800043788 L40.2270019,0.225000011 L37.5921446,0.225000011 L36.910716,0.899437542 L37.9334268,0.899437542 L37.9334268,10.4906255 C37.9334268,10.6054317 37.8860675,10.7121943 37.8100882,10.7874568 L37.228716,11.361938 L40.3177455,11.361938" id="Fill-3" sketch:type="MSShapeGroup"></path>
                <path d="M35.4351392,10.9150318 L34.8542781,10.4697005 C34.6777881,10.3254192 34.4291802,10.1351817 34.4291802,9.78451921 C34.4291802,9.43093169 34.6590488,9.16115668 34.8663734,9.00174417 C35.5602381,8.46815665 36.2236088,7.89851287 36.2236088,6.71996282 C36.2236088,5.64688152 35.5704595,5.02115649 35.1638738,4.66818772 L36.0651767,4.66818772 L36.7403589,3.99937519 L33.4298084,3.99937519 C31.1145411,3.99937519 29.93743,5.42761901 29.93743,7.01066283 C29.93743,8.23533789 30.8762682,9.54000045 32.570754,9.54000045 L33.0492873,9.54000045 C32.9880723,9.70981921 32.9243587,9.90168797 32.9243587,10.1250005 C32.9243587,10.6187068 33.1589973,10.8750943 33.404198,11.1487505 C32.6785333,11.1959443 31.3230015,11.3328005 30.3242543,11.9379381 C29.3716171,12.4999881 29.0856442,13.3120694 29.0856442,13.8853694 C29.0856442,15.068307 30.22999,16.1859383 32.5666087,16.1859383 C35.3407613,16.1859383 36.7857874,14.6534069 36.7857874,13.1532756 C36.7857874,12.0466131 36.1432571,11.506388 35.4351392,10.9150318 M33.3826194,9.07031293 C32.0576951,9.07031293 31.3371979,7.43895035 31.3371979,6.19948154 C31.3371979,5.02273149 32.0419654,4.50000021 32.7796119,4.50000021 C34.1982895,4.50000021 34.9317338,6.32570655 34.9317338,7.4358566 C34.9317338,8.80526291 33.8219705,9.07031293 33.3826194,9.07031293 M33.3616087,15.4856257 C31.6370833,15.4856257 30.5223229,14.6687069 30.5223229,13.5345381 C30.5223229,12.4030131 31.5536083,12.0180943 31.9090301,11.8893381 C32.5856319,11.6651818 33.456668,11.635313 33.6040837,11.635313 C33.7631405,11.635313 33.8437195,11.6357068 33.9713737,11.6488693 C35.1986834,12.5178193 35.7295731,12.9453194 35.7295731,13.7602694 C35.7295731,14.6692694 34.9057827,15.4856257 33.3616087,15.4856257" id="Fill-9" sketch:type="MSShapeGroup"></path>
                <path d="M25.0178562,11.5818755 C22.4829986,11.5818755 21.1299653,9.6177942 21.1299653,7.84631287 C21.1299653,5.77164402 22.8346157,3.99937519 25.2578894,3.99937519 C27.6025717,3.99937519 29.0686085,5.82024402 29.0686085,7.73471286 C29.0686085,9.60243795 27.6193802,11.5818755 25.0178562,11.5818755 M27.0267645,10.2951005 C27.4116581,9.79408171 27.5046731,9.17038168 27.5046731,8.5543879 C27.5046731,7.17406909 26.8356805,4.54218771 24.8611276,4.54218771 C24.3343833,4.54218771 23.8103079,4.74536272 23.4271179,5.07487524 C22.8055982,5.62190651 22.6939007,6.3114753 22.6939007,6.98686908 C22.6939007,8.54038165 23.4747043,11.095313 25.3997969,11.095313 C26.0237016,11.095313 26.6600423,10.7986505 27.0267645,10.2951005" id="Fill-7" sketch:type="MSShapeGroup"></path>
                <path d="M16.2728558,11.5818755 C13.7379981,11.5818755 12.3849649,9.6177942 12.3849649,7.84631287 C12.3849649,5.77164402 14.0896153,3.99937519 16.512889,3.99937519 C18.8575712,3.99937519 20.3236081,5.82024402 20.3236081,7.73471286 C20.3236081,9.60243795 18.8743798,11.5818755 16.2728558,11.5818755 M18.2817641,10.2951005 C18.6666577,9.79408171 18.7596727,9.17038168 18.7596727,8.5543879 C18.7596727,7.17406909 18.0906801,4.54218771 16.1161272,4.54218771 C15.5893829,4.54218771 15.0653075,4.74536272 14.6821175,5.07487524 C14.0605978,5.62190651 13.9489003,6.3114753 13.9489003,6.98686908 C13.9489003,8.54038165 14.7297039,11.095313 16.6547965,11.095313 C17.2787012,11.095313 17.9150419,10.7986505 18.2817641,10.2951005" id="Fill-1" sketch:type="MSShapeGroup"></path>
                <path d="M8.06357181,7.20000034 L7.3821432,7.87443787 L9.42642902,7.87443787 L9.42642902,10.7228818 C8.95737899,10.8749818 8.20286717,11.039063 7.05846462,11.039063 C3.97738519,11.039063 1.74332151,8.34648789 1.74332151,5.324344 C1.74332151,2.56786887 3.57318445,0.63545628 6.08663386,0.63545628 C7.54551571,0.63545628 8.56357005,1.1043563 9.42642902,1.91638134 L9.42642902,2.84625013 L10.9823577,1.30500006 C10.6248916,1.0622813 9.9950244,0.654018781 8.88054792,0.329062515 C8.15965324,0.120937506 7.31082034,0.0140625007 6.43876209,0.0140625007 C2.22253618,0.0140625007 0.0113571434,3.08047515 0.0113571434,5.77361277 C0.0113571434,9.64597545 2.86841692,11.7421881 6.17465172,11.7421881 C8.46345683,11.7421881 10.2602705,11.2293568 11.0164291,11.0229755 L11.0164291,8.07187538 C11.0164291,7.95706912 11.0632205,7.85120662 11.1391998,7.77588787 L11.720572,7.20000034 L8.06357181,7.20000034" id="Fill-11" sketch:type="MSShapeGroup"></path>
            </g>
            <path d="M67.3476562,30 L67.3476562,19.3359375 L70.3286133,19.3359375 C70.9926791,19.3359375 71.6042453,19.4506824 72.1633301,19.6801758 C72.7224149,19.9096691 73.2033671,20.2368143 73.6062012,20.6616211 C74.0090352,21.0864279 74.3227528,21.5966767 74.5473633,22.1923828 C74.7719738,22.7880889 74.8842773,23.4521448 74.8842773,24.1845703 L74.8842773,25.1586914 C74.8842773,25.8911169 74.7719738,26.5551728 74.5473633,27.1508789 C74.3227528,27.746585 74.0078145,28.2556131 73.6025391,28.6779785 C73.1972636,29.1003439 72.7114286,29.4262684 72.1450195,29.6557617 C71.5786104,29.8852551 70.9536167,30 70.2700195,30 L67.3476562,30 Z M68.2485352,20.1049805 L68.2485352,29.2382812 L70.2700195,29.2382812 C70.8413115,29.2382812 71.356443,29.1394053 71.8154297,28.9416504 C72.2744164,28.7438955 72.6650375,28.465578 72.9873047,28.1066895 C73.3095719,27.7478009 73.5573722,27.3181177 73.7307129,26.817627 C73.9040536,26.3171362 73.9907227,25.7641632 73.9907227,25.1586914 L73.9907227,24.1625977 C73.9907227,23.5473602 73.9028329,22.9895045 73.7270508,22.4890137 C73.5512687,21.9885229 73.3034684,21.5625018 72.9836426,21.2109375 C72.6638168,20.8593732 72.2792991,20.5871592 71.8300781,20.3942871 C71.3808571,20.2014151 70.8803739,20.1049805 70.3286133,20.1049805 L68.2485352,20.1049805 Z M80.0332031,30.1464844 C79.5156224,30.1464844 79.039553,30.0500498 78.6049805,29.8571777 C78.170408,29.6643057 77.7956559,29.3957537 77.4807129,29.0515137 C77.1657699,28.7072737 76.920411,28.2983422 76.7446289,27.824707 C76.5688468,27.3510719 76.480957,26.8310575 76.480957,26.2646484 L76.480957,25.949707 C76.480957,25.3393524 76.5725089,24.7863794 76.7556152,24.2907715 C76.9387216,23.7951635 77.1865219,23.3728045 77.4990234,23.0236816 C77.811525,22.6745588 78.1716288,22.4047861 78.5793457,22.2143555 C78.9870626,22.0239248 79.4179665,21.9287109 79.8720703,21.9287109 C80.3750025,21.9287109 80.8217754,22.0190421 81.2124023,22.199707 C81.6030293,22.380372 81.9313952,22.6318343 82.1975098,22.9541016 C82.4636244,23.2763688 82.6650384,23.6596657 82.8017578,24.1040039 C82.9384772,24.5483421 83.0068359,25.0341771 83.0068359,25.5615234 L83.0068359,26.0961914 L77.3525391,26.0961914 L77.3525391,26.2646484 C77.3525391,26.6992209 77.4184564,27.1081524 77.550293,27.4914551 C77.6821296,27.8747578 77.8676746,28.2080064 78.1069336,28.4912109 C78.3461926,28.7744155 78.6318343,28.9978019 78.9638672,29.161377 C79.2959001,29.324952 79.6645488,29.4067383 80.0698242,29.4067383 C80.5385766,29.4067383 80.9523908,29.3212899 81.3112793,29.1503906 C81.6701678,28.9794913 81.9960923,28.7060566 82.2890625,28.3300781 L82.8383789,28.7475586 C82.7065423,28.9379892 82.5539559,29.1186515 82.3806152,29.2895508 C82.2072745,29.4604501 82.0058605,29.6093744 81.7763672,29.7363281 C81.5468739,29.8632819 81.2880874,29.9633785 81,30.0366211 C80.7119126,30.1098636 80.3896502,30.1464844 80.0332031,30.1464844 L80.0332031,30.1464844 Z M79.8720703,22.6757812 C79.5400374,22.6757812 79.2324233,22.7392572 78.9492188,22.8662109 C78.6660142,22.9931647 78.4157726,23.173827 78.1984863,23.4082031 C77.9812001,23.6425793 77.8029792,23.9245589 77.6638184,24.2541504 C77.5246575,24.5837419 77.4306643,24.9487285 77.3818359,25.3491211 L82.1352539,25.3491211 L82.1352539,25.2539062 C82.1254882,24.9218733 82.0717778,24.6008316 81.9741211,24.2907715 C81.8764644,23.9807113 81.7336435,23.7060559 81.5456543,23.4667969 C81.3576651,23.2275379 81.1245131,23.0358894 80.8461914,22.8918457 C80.5678697,22.747802 80.2431659,22.6757812 79.8720703,22.6757812 L79.8720703,22.6757812 Z M87.1816406,28.7915039 L89.5913086,22.0751953 L90.4921875,22.0751953 L87.5332031,30 L86.8227539,30 L83.8491211,22.0751953 L84.75,22.0751953 L87.1816406,28.7915039 Z M94.996582,30.1464844 C94.4790013,30.1464844 94.0029319,30.0500498 93.5683594,29.8571777 C93.1337869,29.6643057 92.7590348,29.3957537 92.4440918,29.0515137 C92.1291488,28.7072737 91.8837899,28.2983422 91.7080078,27.824707 C91.5322257,27.3510719 91.4443359,26.8310575 91.4443359,26.2646484 L91.4443359,25.949707 C91.4443359,25.3393524 91.5358878,24.7863794 91.7189941,24.2907715 C91.9021005,23.7951635 92.1499008,23.3728045 92.4624023,23.0236816 C92.7749039,22.6745588 93.1350077,22.4047861 93.5427246,22.2143555 C93.9504415,22.0239248 94.3813454,21.9287109 94.8354492,21.9287109 C95.3383814,21.9287109 95.7851543,22.0190421 96.1757812,22.199707 C96.5664082,22.380372 96.8947741,22.6318343 97.1608887,22.9541016 C97.4270033,23.2763688 97.6284173,23.6596657 97.7651367,24.1040039 C97.9018562,24.5483421 97.9702148,25.0341771 97.9702148,25.5615234 L97.9702148,26.0961914 L92.315918,26.0961914 L92.315918,26.2646484 C92.315918,26.6992209 92.3818353,27.1081524 92.5136719,27.4914551 C92.6455085,27.8747578 92.8310535,28.2080064 93.0703125,28.4912109 C93.3095715,28.7744155 93.5952132,28.9978019 93.9272461,29.161377 C94.259279,29.324952 94.6279277,29.4067383 95.0332031,29.4067383 C95.5019555,29.4067383 95.9157697,29.3212899 96.2746582,29.1503906 C96.6335467,28.9794913 96.9594712,28.7060566 97.2524414,28.3300781 L97.8017578,28.7475586 C97.6699212,28.9379892 97.5173349,29.1186515 97.3439941,29.2895508 C97.1706534,29.4604501 96.9692394,29.6093744 96.7397461,29.7363281 C96.5102528,29.8632819 96.2514663,29.9633785 95.9633789,30.0366211 C95.6752915,30.1098636 95.3530291,30.1464844 94.996582,30.1464844 L94.996582,30.1464844 Z M94.8354492,22.6757812 C94.5034163,22.6757812 94.1958022,22.7392572 93.9125977,22.8662109 C93.6293931,22.9931647 93.3791515,23.173827 93.1618652,23.4082031 C92.944579,23.6425793 92.7663581,23.9245589 92.6271973,24.2541504 C92.4880364,24.5837419 92.3940432,24.9487285 92.3452148,25.3491211 L97.0986328,25.3491211 L97.0986328,25.2539062 C97.0888671,24.9218733 97.0351567,24.6008316 96.9375,24.2907715 C96.8398433,23.9807113 96.6970224,23.7060559 96.5090332,23.4667969 C96.321044,23.2275379 96.087892,23.0358894 95.8095703,22.8918457 C95.5312486,22.747802 95.2065448,22.6757812 94.8354492,22.6757812 L94.8354492,22.6757812 Z M100.658203,30 L99.7792969,30 L99.7792969,18.75 L100.658203,18.75 L100.658203,30 Z M102.555176,25.9204102 C102.555176,25.3442354 102.639403,24.8120142 102.807861,24.3237305 C102.976319,23.8354468 103.214354,23.4143084 103.521973,23.0603027 C103.829591,22.7062971 104.200681,22.4292002 104.635254,22.2290039 C105.069826,22.0288076 105.55322,21.9287109 106.085449,21.9287109 C106.627444,21.9287109 107.116941,22.0288076 107.553955,22.2290039 C107.990969,22.4292002 108.36328,22.7062971 108.670898,23.0603027 C108.978517,23.4143084 109.215331,23.8354468 109.381348,24.3237305 C109.547364,24.8120142 109.630371,25.3442354 109.630371,25.9204102 L109.630371,26.1621094 C109.630371,26.7382841 109.547364,27.2705054 109.381348,27.7587891 C109.215331,28.2470728 108.978517,28.6682111 108.670898,29.0222168 C108.36328,29.3762225 107.99219,29.6520986 107.557617,29.8498535 C107.123045,30.0476084 106.63721,30.1464844 106.100098,30.1464844 C105.562986,30.1464844 105.077151,30.0476084 104.642578,29.8498535 C104.208006,29.6520986 103.835695,29.3762225 103.525635,29.0222168 C103.215575,28.6682111 102.976319,28.2470728 102.807861,27.7587891 C102.639403,27.2705054 102.555176,26.7382841 102.555176,26.1621094 L102.555176,25.9204102 Z M103.434082,26.1621094 C103.434082,26.5966819 103.492675,27.0104961 103.609863,27.4035645 C103.727051,27.7966328 103.897948,28.1408677 104.122559,28.4362793 C104.347169,28.7316909 104.625487,28.9672843 104.95752,29.1430664 C105.289552,29.3188485 105.670408,29.4067383 106.100098,29.4067383 C106.529787,29.4067383 106.909422,29.3188485 107.239014,29.1430664 C107.568605,28.9672843 107.845702,28.7316909 108.070312,28.4362793 C108.294923,28.1408677 108.46582,27.7966328 108.583008,27.4035645 C108.700196,27.0104961 108.758789,26.5966819 108.758789,26.1621094 L108.758789,25.9204102 C108.758789,25.4956033 108.700196,25.0866719 108.583008,24.6936035 C108.46582,24.3005351 108.294923,23.9550796 108.070312,23.6572266 C107.845702,23.3593735 107.566164,23.1213388 107.231689,22.9431152 C106.897215,22.7648917 106.515139,22.6757812 106.085449,22.6757812 C105.660642,22.6757812 105.283449,22.7648917 104.953857,22.9431152 C104.624266,23.1213388 104.347169,23.3593735 104.122559,23.6572266 C103.897948,23.9550796 103.727051,24.3005351 103.609863,24.6936035 C103.492675,25.0866719 103.434082,25.4956033 103.434082,25.9204102 L103.434082,26.1621094 Z M117.811523,26.1181641 C117.811523,26.7138702 117.744385,27.2582983 117.610107,27.7514648 C117.475829,28.2446314 117.279298,28.6682111 117.020508,29.0222168 C116.761717,29.3762225 116.445559,29.6520986 116.072021,29.8498535 C115.698484,30.0476084 115.272463,30.1464844 114.793945,30.1464844 C114.227536,30.1464844 113.738039,30.045167 113.325439,29.8425293 C112.91284,29.6398916 112.572267,29.3603533 112.303711,29.0039062 L112.303711,33.046875 L111.432129,33.046875 L111.432129,22.0751953 L112.245117,22.0751953 L112.289062,23.1958008 C112.557619,22.800291 112.896971,22.4902355 113.307129,22.265625 C113.717287,22.0410145 114.205564,21.9287109 114.771973,21.9287109 C115.255374,21.9287109 115.686277,22.0239248 116.064697,22.2143555 C116.443117,22.4047861 116.761717,22.6757795 117.020508,23.0273438 C117.279298,23.378908 117.475829,23.8024878 117.610107,24.2980957 C117.744385,24.7937036 117.811523,25.349118 117.811523,25.9643555 L117.811523,26.1181641 Z M116.932617,25.9643555 C116.932617,25.5053688 116.88501,25.0756856 116.789795,24.675293 C116.69458,24.2749003 116.550538,23.9282241 116.357666,23.6352539 C116.164794,23.3422837 115.919435,23.1115731 115.621582,22.9431152 C115.323729,22.7746574 114.974611,22.6904297 114.574219,22.6904297 C114.256834,22.6904297 113.976075,22.7319332 113.731934,22.8149414 C113.487792,22.8979496 113.274171,23.0090325 113.091064,23.1481934 C112.907958,23.2873542 112.75171,23.4484854 112.622314,23.6315918 C112.492919,23.8146982 112.386719,24.0063467 112.303711,24.206543 L112.303711,28.0078125 C112.396485,28.2080088 112.51245,28.3935538 112.651611,28.5644531 C112.790772,28.7353524 112.954345,28.883056 113.142334,29.0075684 C113.330323,29.1320807 113.543944,29.229736 113.783203,29.3005371 C114.022462,29.3713382 114.291014,29.4067383 114.588867,29.4067383 C114.98926,29.4067383 115.335936,29.3225106 115.628906,29.1540527 C115.921876,28.9855949 116.164794,28.7536636 116.357666,28.458252 C116.550538,28.1628403 116.69458,27.8149434 116.789795,27.4145508 C116.88501,27.0141582 116.932617,26.5820336 116.932617,26.1181641 L116.932617,25.9643555 Z M122.821289,30.1464844 C122.303708,30.1464844 121.827639,30.0500498 121.393066,29.8571777 C120.958494,29.6643057 120.583742,29.3957537 120.268799,29.0515137 C119.953856,28.7072737 119.708497,28.2983422 119.532715,27.824707 C119.356933,27.3510719 119.269043,26.8310575 119.269043,26.2646484 L119.269043,25.949707 C119.269043,25.3393524 119.360595,24.7863794 119.543701,24.2907715 C119.726808,23.7951635 119.974608,23.3728045 120.287109,23.0236816 C120.599611,22.6745588 120.959715,22.4047861 121.367432,22.2143555 C121.775149,22.0239248 122.206052,21.9287109 122.660156,21.9287109 C123.163088,21.9287109 123.609861,22.0190421 124.000488,22.199707 C124.391115,22.380372 124.719481,22.6318343 124.985596,22.9541016 C125.25171,23.2763688 125.453124,23.6596657 125.589844,24.1040039 C125.726563,24.5483421 125.794922,25.0341771 125.794922,25.5615234 L125.794922,26.0961914 L120.140625,26.0961914 L120.140625,26.2646484 C120.140625,26.6992209 120.206542,27.1081524 120.338379,27.4914551 C120.470216,27.8747578 120.655761,28.2080064 120.89502,28.4912109 C121.134279,28.7744155 121.41992,28.9978019 121.751953,29.161377 C122.083986,29.324952 122.452635,29.4067383 122.85791,29.4067383 C123.326662,29.4067383 123.740477,29.3212899 124.099365,29.1503906 C124.458254,28.9794913 124.784178,28.7060566 125.077148,28.3300781 L125.626465,28.7475586 C125.494628,28.9379892 125.342042,29.1186515 125.168701,29.2895508 C124.99536,29.4604501 124.793946,29.6093744 124.564453,29.7363281 C124.33496,29.8632819 124.076173,29.9633785 123.788086,30.0366211 C123.499999,30.1098636 123.177736,30.1464844 122.821289,30.1464844 L122.821289,30.1464844 Z M122.660156,22.6757812 C122.328123,22.6757812 122.020509,22.7392572 121.737305,22.8662109 C121.4541,22.9931647 121.203859,23.173827 120.986572,23.4082031 C120.769286,23.6425793 120.591065,23.9245589 120.451904,24.2541504 C120.312743,24.5837419 120.21875,24.9487285 120.169922,25.3491211 L124.92334,25.3491211 L124.92334,25.2539062 C124.913574,24.9218733 124.859864,24.6008316 124.762207,24.2907715 C124.66455,23.9807113 124.521729,23.7060559 124.33374,23.4667969 C124.145751,23.2275379 123.912599,23.0358894 123.634277,22.8918457 C123.355956,22.747802 123.031252,22.6757812 122.660156,22.6757812 L122.660156,22.6757812 Z M131.163574,22.8222656 C130.978026,22.7880858 130.780274,22.7709961 130.570312,22.7709961 C130.272459,22.7709961 130.003907,22.814941 129.764648,22.902832 C129.525389,22.9907231 129.31421,23.1140129 129.131104,23.2727051 C128.947997,23.4313973 128.79419,23.6193837 128.669678,23.8366699 C128.545165,24.0539562 128.446289,24.2944323 128.373047,24.5581055 L128.373047,30 L127.501465,30 L127.501465,22.0751953 L128.358398,22.0751953 L128.373047,23.3349609 C128.587892,22.9003885 128.879637,22.5573743 129.248291,22.3059082 C129.616945,22.0544421 130.069822,21.9287109 130.606934,21.9287109 C130.714356,21.9287109 130.824218,21.9384765 130.936523,21.9580078 C131.048829,21.9775392 131.131836,21.9995116 131.185547,22.0239258 L131.163574,22.8222656 Z M137.293945,27.9858398 C137.293945,27.8247062 137.265869,27.663575 137.209717,27.5024414 C137.153564,27.3413078 137.048585,27.1887214 136.894775,27.0446777 C136.740966,26.900634 136.526124,26.766358 136.250244,26.6418457 C135.974364,26.5173334 135.616701,26.4086919 135.177246,26.315918 C134.737791,26.2231441 134.345949,26.1157233 134.001709,25.9936523 C133.657469,25.8715814 133.366945,25.7238778 133.130127,25.5505371 C132.893309,25.3771964 132.713868,25.1708996 132.591797,24.9316406 C132.469726,24.6923816 132.408691,24.4116227 132.408691,24.0893555 C132.408691,23.7963853 132.473388,23.5180677 132.602783,23.2543945 C132.732178,22.9907213 132.917723,22.7612314 133.159424,22.565918 C133.401124,22.3706045 133.69409,22.2155767 134.03833,22.1008301 C134.38257,21.9860834 134.769529,21.9287109 135.199219,21.9287109 C135.658205,21.9287109 136.069578,21.9885248 136.43335,22.1081543 C136.797121,22.2277838 137.104735,22.3937978 137.356201,22.6062012 C137.607667,22.8186046 137.799316,23.0688462 137.931152,23.3569336 C138.062989,23.645021 138.128906,23.9575178 138.128906,24.2944336 L137.25,24.2944336 C137.25,24.0893544 137.204834,23.8891611 137.114502,23.6938477 C137.024169,23.4985342 136.892335,23.3264168 136.718994,23.1774902 C136.545653,23.0285637 136.330812,22.9077153 136.074463,22.8149414 C135.818114,22.7221675 135.526369,22.6757812 135.199219,22.6757812 C134.85742,22.6757812 134.565675,22.7172847 134.323975,22.800293 C134.082274,22.8833012 133.884522,22.990722 133.730713,23.1225586 C133.576904,23.2543952 133.4646,23.4020988 133.393799,23.5656738 C133.322998,23.7292489 133.287598,23.8940421 133.287598,24.0600586 C133.287598,24.2358407 133.314453,24.3957512 133.368164,24.5397949 C133.421875,24.6838386 133.525634,24.8181146 133.679443,24.942627 C133.833253,25.0671393 134.048094,25.1818842 134.323975,25.2868652 C134.599855,25.3918462 134.959959,25.495605 135.404297,25.5981445 C135.882815,25.7104498 136.295408,25.8349603 136.64209,25.9716797 C136.988771,26.1083991 137.275634,26.270751 137.502686,26.4587402 C137.729737,26.6467295 137.898193,26.8615711 138.008057,27.1032715 C138.11792,27.3449719 138.172852,27.6245101 138.172852,27.9418945 C138.172852,28.2690446 138.104493,28.5681139 137.967773,28.8391113 C137.831054,29.1101088 137.635743,29.3420401 137.381836,29.5349121 C137.127928,29.7277842 136.820314,29.8779292 136.458984,29.9853516 C136.097654,30.092774 135.694826,30.1464844 135.250488,30.1464844 C134.747556,30.1464844 134.303225,30.0817878 133.91748,29.9523926 C133.531736,29.8229974 133.207033,29.6484386 132.943359,29.4287109 C132.679686,29.2089833 132.480714,28.9563003 132.346436,28.6706543 C132.212158,28.3850083 132.14502,28.0883804 132.14502,27.7807617 L133.023926,27.7807617 C133.043457,28.0932633 133.124023,28.3532704 133.265625,28.560791 C133.407227,28.7683116 133.583007,28.9343255 133.792969,29.0588379 C134.002931,29.1833502 134.236083,29.2724607 134.492432,29.3261719 C134.748781,29.3798831 135.001464,29.4067383 135.250488,29.4067383 C135.582521,29.4067383 135.875487,29.3676762 136.129395,29.2895508 C136.383302,29.2114254 136.596923,29.106446 136.770264,28.9746094 C136.943604,28.8427728 137.074218,28.6914071 137.162109,28.5205078 C137.25,28.3496085 137.293945,28.1713876 137.293945,27.9858398 L137.293945,27.9858398 Z M151.546875,26.6748047 C151.488281,27.2167996 151.361329,27.7026346 151.166016,28.1323242 C150.970702,28.5620139 150.708254,28.9257798 150.378662,29.2236328 C150.049071,29.5214859 149.653567,29.7497551 149.192139,29.9084473 C148.730711,30.0671395 148.207034,30.1464844 147.621094,30.1464844 C147.015622,30.1464844 146.466311,30.0317394 145.973145,29.8022461 C145.479978,29.5727528 145.057619,29.2468283 144.706055,28.8244629 C144.35449,28.4020975 144.083497,27.8955108 143.893066,27.3046875 C143.702636,26.7138642 143.607422,26.0595739 143.607422,25.3417969 L143.607422,24.0014648 C143.607422,23.2836878 143.702636,22.6281768 143.893066,22.0349121 C144.083497,21.4416474 144.355711,20.9350607 144.709717,20.5151367 C145.063722,20.0952127 145.492185,19.7692883 145.995117,19.5373535 C146.498049,19.3054188 147.062009,19.1894531 147.687012,19.1894531 C148.253421,19.1894531 148.76367,19.2675773 149.217773,19.4238281 C149.671877,19.5800789 150.061278,19.8083481 150.385986,20.1086426 C150.710695,20.408937 150.971923,20.7751443 151.169678,21.2072754 C151.367433,21.6394065 151.493164,22.1289035 151.546875,22.6757812 L150.638672,22.6757812 C150.584961,22.2460916 150.487305,21.861574 150.345703,21.5222168 C150.204101,21.1828596 150.012452,20.8984386 149.770752,20.6689453 C149.529052,20.439452 149.236086,20.2636725 148.891846,20.1416016 C148.547606,20.0195306 148.145998,19.9584961 147.687012,19.9584961 C147.188962,19.9584961 146.744631,20.0549307 146.354004,20.2478027 C145.963377,20.4406748 145.631349,20.7128889 145.35791,21.0644531 C145.084471,21.4160174 144.875733,21.8395971 144.731689,22.3352051 C144.587646,22.830813 144.515625,23.3813446 144.515625,23.9868164 L144.515625,25.3417969 C144.515625,25.9277373 144.583984,26.4685034 144.720703,26.9641113 C144.857423,27.4597193 145.057616,27.8869611 145.321289,28.2458496 C145.584962,28.6047381 145.909666,28.8842763 146.29541,29.0844727 C146.681154,29.284669 147.123044,29.3847656 147.621094,29.3847656 C148.563481,29.3847656 149.273923,29.1589378 149.752441,28.7072754 C150.230959,28.255613 150.526367,27.5781295 150.638672,26.6748047 L151.546875,26.6748047 Z M153.04834,25.9204102 C153.04834,25.3442354 153.132568,24.8120142 153.301025,24.3237305 C153.469483,23.8354468 153.707518,23.4143084 154.015137,23.0603027 C154.322755,22.7062971 154.693845,22.4292002 155.128418,22.2290039 C155.56299,22.0288076 156.046384,21.9287109 156.578613,21.9287109 C157.120608,21.9287109 157.610105,22.0288076 158.047119,22.2290039 C158.484133,22.4292002 158.856444,22.7062971 159.164062,23.0603027 C159.471681,23.4143084 159.708495,23.8354468 159.874512,24.3237305 C160.040528,24.8120142 160.123535,25.3442354 160.123535,25.9204102 L160.123535,26.1621094 C160.123535,26.7382841 160.040528,27.2705054 159.874512,27.7587891 C159.708495,28.2470728 159.471681,28.6682111 159.164062,29.0222168 C158.856444,29.3762225 158.485354,29.6520986 158.050781,29.8498535 C157.616209,30.0476084 157.130374,30.1464844 156.593262,30.1464844 C156.05615,30.1464844 155.570315,30.0476084 155.135742,29.8498535 C154.70117,29.6520986 154.328859,29.3762225 154.018799,29.0222168 C153.708739,28.6682111 153.469483,28.2470728 153.301025,27.7587891 C153.132568,27.2705054 153.04834,26.7382841 153.04834,26.1621094 L153.04834,25.9204102 Z M153.927246,26.1621094 C153.927246,26.5966819 153.985839,27.0104961 154.103027,27.4035645 C154.220215,27.7966328 154.391112,28.1408677 154.615723,28.4362793 C154.840333,28.7316909 155.118651,28.9672843 155.450684,29.1430664 C155.782717,29.3188485 156.163572,29.4067383 156.593262,29.4067383 C157.022951,29.4067383 157.402586,29.3188485 157.732178,29.1430664 C158.061769,28.9672843 158.338866,28.7316909 158.563477,28.4362793 C158.788087,28.1408677 158.958984,27.7966328 159.076172,27.4035645 C159.19336,27.0104961 159.251953,26.5966819 159.251953,26.1621094 L159.251953,25.9204102 C159.251953,25.4956033 159.19336,25.0866719 159.076172,24.6936035 C158.958984,24.3005351 158.788087,23.9550796 158.563477,23.6572266 C158.338866,23.3593735 158.059328,23.1213388 157.724854,22.9431152 C157.390379,22.7648917 157.008303,22.6757812 156.578613,22.6757812 C156.153806,22.6757812 155.776613,22.7648917 155.447021,22.9431152 C155.11743,23.1213388 154.840333,23.3593735 154.615723,23.6572266 C154.391112,23.9550796 154.220215,24.3005351 154.103027,24.6936035 C153.985839,25.0866719 153.927246,25.4956033 153.927246,25.9204102 L153.927246,26.1621094 Z M162.767578,22.0751953 L162.796875,23.4301758 C162.933594,23.2055653 163.091064,23.0004892 163.269287,22.8149414 C163.447511,22.6293936 163.646483,22.4707038 163.866211,22.3388672 C164.085939,22.2070306 164.322753,22.1057132 164.57666,22.0349121 C164.830568,21.964111 165.09912,21.9287109 165.382324,21.9287109 C165.777834,21.9287109 166.131834,21.9824213 166.444336,22.0898438 C166.756838,22.1972662 167.021727,22.3681629 167.239014,22.6025391 C167.4563,22.8369152 167.622314,23.1384259 167.737061,23.5070801 C167.851807,23.8757343 167.90918,24.3212865 167.90918,24.84375 L167.90918,30 L167.037598,30 L167.037598,24.8364258 C167.037598,24.4262675 166.993653,24.084474 166.905762,23.8110352 C166.817871,23.5375963 166.69336,23.3178719 166.532227,23.1518555 C166.371093,22.985839 166.174562,22.867432 165.942627,22.7966309 C165.710692,22.7258297 165.453126,22.6904297 165.169922,22.6904297 C164.85742,22.6904297 164.57422,22.7429194 164.320312,22.8479004 C164.066405,22.9528814 163.841798,23.0932608 163.646484,23.269043 C163.451171,23.4448251 163.282716,23.6462391 163.141113,23.873291 C162.999511,24.1003429 162.887207,24.3334949 162.804199,24.5727539 L162.804199,30 L161.932617,30 L161.932617,22.0751953 L162.767578,22.0751953 Z M174.918457,27.9858398 C174.918457,27.8247062 174.890381,27.663575 174.834229,27.5024414 C174.778076,27.3413078 174.673096,27.1887214 174.519287,27.0446777 C174.365478,26.900634 174.150636,26.766358 173.874756,26.6418457 C173.598876,26.5173334 173.241213,26.4086919 172.801758,26.315918 C172.362302,26.2231441 171.970461,26.1157233 171.626221,25.9936523 C171.281981,25.8715814 170.991456,25.7238778 170.754639,25.5505371 C170.517821,25.3771964 170.33838,25.1708996 170.216309,24.9316406 C170.094238,24.6923816 170.033203,24.4116227 170.033203,24.0893555 C170.033203,23.7963853 170.0979,23.5180677 170.227295,23.2543945 C170.35669,22.9907213 170.542235,22.7612314 170.783936,22.565918 C171.025636,22.3706045 171.318602,22.2155767 171.662842,22.1008301 C172.007082,21.9860834 172.394041,21.9287109 172.82373,21.9287109 C173.282717,21.9287109 173.69409,21.9885248 174.057861,22.1081543 C174.421633,22.2277838 174.729247,22.3937978 174.980713,22.6062012 C175.232179,22.8186046 175.423827,23.0688462 175.555664,23.3569336 C175.687501,23.645021 175.753418,23.9575178 175.753418,24.2944336 L174.874512,24.2944336 C174.874512,24.0893544 174.829346,23.8891611 174.739014,23.6938477 C174.648681,23.4985342 174.516847,23.3264168 174.343506,23.1774902 C174.170165,23.0285637 173.955324,22.9077153 173.698975,22.8149414 C173.442626,22.7221675 173.150881,22.6757812 172.82373,22.6757812 C172.481932,22.6757812 172.190187,22.7172847 171.948486,22.800293 C171.706786,22.8833012 171.509034,22.990722 171.355225,23.1225586 C171.201415,23.2543952 171.089112,23.4020988 171.018311,23.5656738 C170.947509,23.7292489 170.912109,23.8940421 170.912109,24.0600586 C170.912109,24.2358407 170.938965,24.3957512 170.992676,24.5397949 C171.046387,24.6838386 171.150146,24.8181146 171.303955,24.942627 C171.457764,25.0671393 171.672606,25.1818842 171.948486,25.2868652 C172.224367,25.3918462 172.58447,25.495605 173.028809,25.5981445 C173.507327,25.7104498 173.91992,25.8349603 174.266602,25.9716797 C174.613283,26.1083991 174.900145,26.270751 175.127197,26.4587402 C175.354249,26.6467295 175.522705,26.8615711 175.632568,27.1032715 C175.742432,27.3449719 175.797363,27.6245101 175.797363,27.9418945 C175.797363,28.2690446 175.729005,28.5681139 175.592285,28.8391113 C175.455566,29.1101088 175.260255,29.3420401 175.006348,29.5349121 C174.75244,29.7277842 174.444826,29.8779292 174.083496,29.9853516 C173.722166,30.092774 173.319338,30.1464844 172.875,30.1464844 C172.372068,30.1464844 171.927736,30.0817878 171.541992,29.9523926 C171.156248,29.8229974 170.831544,29.6484386 170.567871,29.4287109 C170.304198,29.2089833 170.105225,28.9563003 169.970947,28.6706543 C169.836669,28.3850083 169.769531,28.0883804 169.769531,27.7807617 L170.648438,27.7807617 C170.667969,28.0932633 170.748534,28.3532704 170.890137,28.560791 C171.031739,28.7683116 171.207518,28.9343255 171.41748,29.0588379 C171.627442,29.1833502 171.860594,29.2724607 172.116943,29.3261719 C172.373292,29.3798831 172.625975,29.4067383 172.875,29.4067383 C173.207033,29.4067383 173.499999,29.3676762 173.753906,29.2895508 C174.007814,29.2114254 174.221435,29.106446 174.394775,28.9746094 C174.568116,28.8427728 174.69873,28.6914071 174.786621,28.5205078 C174.874512,28.3496085 174.918457,28.1713876 174.918457,27.9858398 L174.918457,27.9858398 Z M177.28418,25.9204102 C177.28418,25.3442354 177.368407,24.8120142 177.536865,24.3237305 C177.705323,23.8354468 177.943358,23.4143084 178.250977,23.0603027 C178.558595,22.7062971 178.929685,22.4292002 179.364258,22.2290039 C179.79883,22.0288076 180.282224,21.9287109 180.814453,21.9287109 C181.356448,21.9287109 181.845945,22.0288076 182.282959,22.2290039 C182.719973,22.4292002 183.092284,22.7062971 183.399902,23.0603027 C183.707521,23.4143084 183.944335,23.8354468 184.110352,24.3237305 C184.276368,24.8120142 184.359375,25.3442354 184.359375,25.9204102 L184.359375,26.1621094 C184.359375,26.7382841 184.276368,27.2705054 184.110352,27.7587891 C183.944335,28.2470728 183.707521,28.6682111 183.399902,29.0222168 C183.092284,29.3762225 182.721194,29.6520986 182.286621,29.8498535 C181.852049,30.0476084 181.366214,30.1464844 180.829102,30.1464844 C180.29199,30.1464844 179.806155,30.0476084 179.371582,29.8498535 C178.93701,29.6520986 178.564699,29.3762225 178.254639,29.0222168 C177.944579,28.6682111 177.705323,28.2470728 177.536865,27.7587891 C177.368407,27.2705054 177.28418,26.7382841 177.28418,26.1621094 L177.28418,25.9204102 Z M178.163086,26.1621094 C178.163086,26.5966819 178.221679,27.0104961 178.338867,27.4035645 C178.456055,27.7966328 178.626952,28.1408677 178.851562,28.4362793 C179.076173,28.7316909 179.354491,28.9672843 179.686523,29.1430664 C180.018556,29.3188485 180.399412,29.4067383 180.829102,29.4067383 C181.258791,29.4067383 181.638426,29.3188485 181.968018,29.1430664 C182.297609,28.9672843 182.574706,28.7316909 182.799316,28.4362793 C183.023927,28.1408677 183.194824,27.7966328 183.312012,27.4035645 C183.4292,27.0104961 183.487793,26.5966819 183.487793,26.1621094 L183.487793,25.9204102 C183.487793,25.4956033 183.4292,25.0866719 183.312012,24.6936035 C183.194824,24.3005351 183.023927,23.9550796 182.799316,23.6572266 C182.574706,23.3593735 182.295168,23.1213388 181.960693,22.9431152 C181.626219,22.7648917 181.244143,22.6757812 180.814453,22.6757812 C180.389646,22.6757812 180.012453,22.7648917 179.682861,22.9431152 C179.35327,23.1213388 179.076173,23.3593735 178.851562,23.6572266 C178.626952,23.9550796 178.456055,24.3005351 178.338867,24.6936035 C178.221679,25.0866719 178.163086,25.4956033 178.163086,25.9204102 L178.163086,26.1621094 Z M187.149902,30 L186.270996,30 L186.270996,18.75 L187.149902,18.75 L187.149902,30 Z M192.599121,30.1464844 C192.08154,30.1464844 191.605471,30.0500498 191.170898,29.8571777 C190.736326,29.6643057 190.361574,29.3957537 190.046631,29.0515137 C189.731688,28.7072737 189.486329,28.2983422 189.310547,27.824707 C189.134765,27.3510719 189.046875,26.8310575 189.046875,26.2646484 L189.046875,25.949707 C189.046875,25.3393524 189.138427,24.7863794 189.321533,24.2907715 C189.50464,23.7951635 189.75244,23.3728045 190.064941,23.0236816 C190.377443,22.6745588 190.737547,22.4047861 191.145264,22.2143555 C191.552981,22.0239248 191.983884,21.9287109 192.437988,21.9287109 C192.94092,21.9287109 193.387693,22.0190421 193.77832,22.199707 C194.168947,22.380372 194.497313,22.6318343 194.763428,22.9541016 C195.029542,23.2763688 195.230956,23.6596657 195.367676,24.1040039 C195.504395,24.5483421 195.572754,25.0341771 195.572754,25.5615234 L195.572754,26.0961914 L189.918457,26.0961914 L189.918457,26.2646484 C189.918457,26.6992209 189.984374,27.1081524 190.116211,27.4914551 C190.248048,27.8747578 190.433593,28.2080064 190.672852,28.4912109 C190.912111,28.7744155 191.197752,28.9978019 191.529785,29.161377 C191.861818,29.324952 192.230467,29.4067383 192.635742,29.4067383 C193.104495,29.4067383 193.518309,29.3212899 193.877197,29.1503906 C194.236086,28.9794913 194.56201,28.7060566 194.85498,28.3300781 L195.404297,28.7475586 C195.27246,28.9379892 195.119874,29.1186515 194.946533,29.2895508 C194.773192,29.4604501 194.571778,29.6093744 194.342285,29.7363281 C194.112792,29.8632819 193.854005,29.9633785 193.565918,30.0366211 C193.277831,30.1098636 192.955568,30.1464844 192.599121,30.1464844 L192.599121,30.1464844 Z M192.437988,22.6757812 C192.105955,22.6757812 191.798341,22.7392572 191.515137,22.8662109 C191.231932,22.9931647 190.981691,23.173827 190.764404,23.4082031 C190.547118,23.6425793 190.368897,23.9245589 190.229736,24.2541504 C190.090575,24.5837419 189.996582,24.9487285 189.947754,25.3491211 L194.701172,25.3491211 L194.701172,25.2539062 C194.691406,24.9218733 194.637696,24.6008316 194.540039,24.2907715 C194.442382,23.9807113 194.299561,23.7060559 194.111572,23.4667969 C193.923583,23.2275379 193.690431,23.0358894 193.412109,22.8918457 C193.133788,22.747802 192.809084,22.6757812 192.437988,22.6757812 L192.437988,22.6757812 Z" id="Developers-Console-3" fill="#B2B2B2" sketch:type="MSShapeGroup"></path>
        </g>
    </g>
</svg>